# xmcd
#
# Track frame offsets:
#	150
#	15407
#	36482
#	51175
#	66532
#	80272
#	96210
#	110702
#	123922
#	139237
#	150392
#	164205
#	173380
#	186430
#	199875
#	212777
#	224942
#	241337
#
# Disc length: 3393 seconds
#
# Revision: 1
# Processed by: cddbd v1.5.1PL2 Copyright (c) Steve Scherf et al.
# Submitted via: audiograbber 1.83.01
#
DISCID=120d3f12
DTITLE=Various Artist - A Taste Of Tex-Mex
DYEAR=1997
DGENRE=Tejano
TTITLE0=Valerio Longoria - Beer Barrel Polka
TTITLE1=Steve Jordan - El Tremblor De San Francisco
TTITLE2=Ruben Vela - Viva San Antonio
TTITLE3=Santiago Jimenez - Al Mirar Tu Cara
TTITLE4=Los Campeones De Raul Ruiz - La Calandria
TTITLE5=Janie C. Ramirez - Santa Amalia
TTITLE6=Los Arcos - Ojitos Verdes
TTITLE7=Rene Joslin - Amor, Amor
TTITLE8=Steve Jordan - Flor De Mexico
TTITLE9=Grupo Badd - Cuatro Vidas
TTITLE10=Jerry and The Ruf-Nex - Oh, Lonesome Me
TTITLE11=Tony De La Rosa - Mejor Solo
TTITLE12=Los Terribles Del Norte - Me Agarro La Imigracion
TTITLE13=Santiago Jimenez - El Corrido De Emilio Cabrerra
TTITLE14=Ruben Vela - Lo Nuestro Termino
TTITLE15=Caballeros Del Norte - Voy A Llorar
TTITLE16=Linda Escobar - Hay Que Sentimento Traigo
TTITLE17=Valerio Longoria - Los Ilegales
EXTD=
EXTT0=
EXTT1=
EXTT2=
EXTT3=
EXTT4=
EXTT5=
EXTT6=
EXTT7=
EXTT8=
EXTT9=
EXTT10=
EXTT11=
EXTT12=
EXTT13=
EXTT14=
EXTT15=
EXTT16=
EXTT17=
PLAYORDER=
